<svg xmlns="http://www.w3.org/2000/svg" viewBox="0 0 540 960" width="540" height="960" role="img">
<defs>
<radialGradient id="g" cx="50%" cy="45%" r="75%">
<stop offset="0%" stop-color="#000" stop-opacity="0"/>
<stop offset="100%" stop-color="#000" stop-opacity="0.95"/>
</radialGradient>
<filter id="grain"><feTurbulence type="fractalNoise" baseFrequency="0.85" numOctaves="3"/></filter>
</defs>
<rect width="540" height="960" fill="#0d0a06"/><ellipse cx="163.02" cy="536.7" rx="369.68" ry="500.23" fill="none" stroke="#8338ec" stroke-width="1.48" opacity="0.46"/><ellipse cx="163.02" cy="536.7" rx="281.66" ry="359.82" fill="none" stroke="#ffbe0b" stroke-width="2.53" opacity="0.65"/><ellipse cx="163.02" cy="536.7" rx="256.08" ry="370.74" fill="none" stroke="#8338ec" stroke-width="3.88" opacity="0.76"/><ellipse cx="163.02" cy="536.7" rx="198.07" ry="317.01" fill="none" stroke="#ffbe0b" stroke-width="3.44" opacity="0.68"/><ellipse cx="163.02" cy="536.7" rx="247.31" ry="359.76" fill="none" stroke="#8338ec" stroke-width="2.91" opacity="0.39"/><ellipse cx="163.02" cy="536.7" rx="173.25" ry="248.29" fill="none" stroke="#ffbe0b" stroke-width="1.18" opacity="0.62"/><ellipse cx="163.02" cy="536.7" rx="173.28" ry="223.87" fill="none" stroke="#8338ec" stroke-width="1.64" opacity="0.62"/><ellipse cx="163.02" cy="536.7" rx="123.49" ry="229.3" fill="none" stroke="#ffbe0b" stroke-width="5.75" opacity="0.77"/><ellipse cx="163.02" cy="536.7" rx="119.12" ry="184.71" fill="none" stroke="#8338ec" stroke-width="5.39" opacity="0.77"/><ellipse cx="163.02" cy="536.7" rx="103.58" ry="169.48" fill="none" stroke="#ffbe0b" stroke-width="3.7" opacity="0.45"/><ellipse cx="163.02" cy="536.7" rx="81.77" ry="119.65" fill="none" stroke="#8338ec" stroke-width="5.7" opacity="0.47"/><ellipse cx="163.02" cy="536.7" rx="63.51" ry="101.98" fill="none" stroke="#ffbe0b" stroke-width="5.56" opacity="0.72"/><ellipse cx="163.02" cy="536.7" rx="34.26" ry="62.37" fill="none" stroke="#8338ec" stroke-width="5.62" opacity="0.46"/><ellipse cx="163.02" cy="536.7" rx="20.26" ry="29.47" fill="none" stroke="#ffbe0b" stroke-width="5.17" opacity="0.32"/><circle cx="163.02" cy="536.7" r="40.66" fill="#fb5607"/><rect width="540" height="960" fill="url(#g)" opacity="0.4"/><rect width="540" height="960" filter="url(#grain)" opacity="0.22"/><rect x="0" y="382.16" width="540" height="15.11" fill="#ffbe0b" opacity="0.7"/><rect x="0" y="944.47" width="540" height="3.32" fill="#fb5607" opacity="0.6"/>
</svg>