<svg xmlns="http://www.w3.org/2000/svg" viewBox="0 0 540 960" width="540" height="960" role="img">
<defs>
<radialGradient id="g" cx="50%" cy="45%" r="75%">
<stop offset="0%" stop-color="#000" stop-opacity="0"/>
<stop offset="100%" stop-color="#000" stop-opacity="0.95"/>
</radialGradient>
<filter id="grain"><feTurbulence type="fractalNoise" baseFrequency="0.85" numOctaves="3"/></filter>
</defs>
<rect width="540" height="960" fill="#0b0b0d"/><circle cx="483.57" cy="295.24" r="298.69" fill="#ff2e63" opacity="0.58"/><circle cx="31.79" cy="791.38" r="171.76" fill="#08d9d6" opacity="0.8"/><circle cx="251.23" cy="292.4" r="270.57" fill="#f8f5f2" opacity="0.48"/><g fill="#0b0b0d" opacity="0.75"><circle cx="11.09" cy="11.09" r="6.31"/><circle cx="33.27" cy="11.09" r="7.7"/><circle cx="55.45" cy="11.09" r="8.88"/><circle cx="77.63" cy="11.09" r="9.72"/><circle cx="99.81" cy="11.09" r="10.16"/><circle cx="121.99" cy="11.09" r="10.14"/><circle cx="144.17" cy="11.09" r="9.67"/><circle cx="166.36" cy="11.09" r="8.79"/><circle cx="188.54" cy="11.09" r="7.59"/><circle cx="210.72" cy="11.09" r="6.19"/><circle cx="232.9" cy="11.09" r="4.73"/><circle cx="255.08" cy="11.09" r="3.36"/><circle cx="277.26" cy="11.09" r="2.21"/><circle cx="299.44" cy="11.09" r="1.39"/><circle cx="321.62" cy="11.09" r="1"/><circle cx="343.8" cy="11.09" r="1.06"/><circle cx="365.98" cy="11.09" r="1.57"/><circle cx="388.16" cy="11.09" r="2.48"/><circle cx="410.34" cy="11.09" r="3.7"/><circle cx="432.52" cy="11.09" r="5.1"/><circle cx="454.7" cy="11.09" r="6.56"/><circle cx="476.88" cy="11.09" r="7.92"/><circle cx="499.07" cy="11.09" r="9.05"/><circle cx="521.25" cy="11.09" r="9.83"/><circle cx="11.09" cy="33.27" r="6.04"/><circle cx="33.27" cy="33.27" r="7.42"/><circle cx="55.45" cy="33.27" r="8.6"/><circle cx="77.63" cy="33.27" r="9.45"/><circle cx="99.81" cy="33.27" r="9.88"/><circle cx="121.99" cy="33.27" r="9.86"/><circle cx="144.17" cy="33.27" r="9.39"/><circle cx="166.36" cy="33.27" r="8.51"/><circle cx="188.54" cy="33.27" r="7.31"/><circle cx="210.72" cy="33.27" r="5.91"/><circle cx="232.9" cy="33.27" r="4.46"/><circle cx="255.08" cy="33.27" r="3.08"/><circle cx="277.26" cy="33.27" r="1.93"/><circle cx="299.44" cy="33.27" r="1.12"/><circle cx="321.62" cy="33.27" r="1.28"/><circle cx="343.8" cy="33.27" r="1.22"/><circle cx="365.98" cy="33.27" r="1.29"/><circle cx="388.16" cy="33.27" r="2.2"/><circle cx="410.34" cy="33.27" r="3.42"/><circle cx="432.52" cy="33.27" r="4.83"/><circle cx="454.7" cy="33.27" r="6.28"/><circle cx="476.88" cy="33.27" r="7.64"/><circle cx="499.07" cy="33.27" r="8.77"/><circle cx="521.25" cy="33.27" r="9.55"/><circle cx="11.09" cy="55.45" r="5.5"/><circle cx="33.27" cy="55.45" r="6.89"/><circle cx="55.45" cy="55.45" r="8.06"/><circle cx="77.63" cy="55.45" r="8.91"/><circle cx="99.81" cy="55.45" r="9.34"/><circle cx="121.99" cy="55.45" r="9.32"/><circle cx="144.17" cy="55.45" r="8.85"/><circle cx="166.36" cy="55.45" r="7.97"/><circle cx="188.54" cy="55.45" r="6.77"/><circle cx="210.72" cy="55.45" r="5.38"/><circle cx="232.9" cy="55.45" r="3.92"/><circle cx="255.08" cy="55.45" r="2.55"/><circle cx="277.26" cy="55.45" r="1.4"/><circle cx="299.44" cy="55.45" r="1.42"/><circle cx="321.62" cy="55.45" r="1.82"/><circle cx="343.8" cy="55.45" r="1.76"/><circle cx="365.98" cy="55.45" r="1.25"/><circle cx="388.16" cy="55.45" r="1.66"/><circle cx="410.34" cy="55.45" r="2.88"/><circle cx="432.52" cy="55.45" r="4.29"/><circle cx="454.7" cy="55.45" r="5.75"/><circle cx="476.88" cy="55.45" r="7.11"/><circle cx="499.07" cy="55.45" r="8.23"/><circle cx="521.25" cy="55.45" r="9.01"/><circle cx="11.09" cy="77.63" r="4.73"/><circle cx="33.27" cy="77.63" r="6.12"/><circle cx="55.45" cy="77.63" r="7.3"/><circle cx="77.63" cy="77.63" r="8.14"/><circle cx="99.81" cy="77.63" r="8.58"/><circle cx="121.99" cy="77.63" r="8.56"/><circle cx="144.17" cy="77.63" r="8.09"/><circle cx="166.36" cy="77.63" r="7.21"/><circle cx="188.54" cy="77.63" r="6.01"/><circle cx="210.72" cy="77.63" r="4.61"/><circle cx="232.9" cy="77.63" r="3.15"/><circle cx="255.08" cy="77.63" r="1.78"/><circle cx="277.26" cy="77.63" r="1.37"/><circle cx="299.44" cy="77.63" r="2.19"/><circle cx="321.62" cy="77.63" r="2.58"/><circle cx="343.8" cy="77.63" r="2.52"/><circle cx="365.98" cy="77.63" r="2.01"/><circle cx="388.16" cy="77.63" r="1.1"/><circle cx="410.34" cy="77.63" r="2.12"/><circle cx="432.52" cy="77.63" r="3.52"/><circle cx="454.7" cy="77.63" r="4.98"/><circle cx="476.88" cy="77.63" r="6.34"/><circle cx="499.07" cy="77.63" r="7.47"/><circle cx="521.25" cy="77.63" r="8.25"/><circle cx="11.09" cy="99.81" r="3.79"/><circle cx="33.27" cy="99.81" r="5.17"/><circle cx="55.45" cy="99.81" r="6.35"/><circle cx="77.63" cy="99.81" r="7.2"/><circle cx="99.81" cy="99.81" r="7.63"/><circle cx="121.99" cy="99.81" r="7.61"/><circle cx="144.17" cy="99.81" r="7.14"/><circle cx="166.36" cy="99.81" r="6.26"/><circle cx="188.54" cy="99.81" r="5.06"/><circle cx="210.72" cy="99.81" r="3.66"/><circle cx="232.9" cy="99.81" r="2.21"/><circle cx="255.08" cy="99.81" r="1.17"/><circle cx="277.26" cy="99.81" r="2.32"/><circle cx="299.44" cy="99.81" r="3.13"/><circle cx="321.62" cy="99.81" r="3.53"/><circle cx="343.8" cy="99.81" r="3.47"/><circle cx="365.98" cy="99.81" r="2.96"/><circle cx="388.16" cy="99.81" r="2.05"/><circle cx="410.34" cy="99.81" r="1.17"/><circle cx="432.52" cy="99.81" r="2.58"/><circle cx="454.7" cy="99.81" r="4.03"/><circle cx="476.88" cy="99.81" r="5.39"/><circle cx="499.07" cy="99.81" r="6.52"/><circle cx="521.25" cy="99.81" r="7.3"/><circle cx="11.09" cy="121.99" r="2.72"/><circle cx="33.27" cy="121.99" r="4.1"/><circle cx="55.45" cy="121.99" r="5.28"/><circle cx="77.63" cy="121.99" r="6.12"/><circle cx="99.81" cy="121.99" r="6.56"/><circle cx="121.99" cy="121.99" r="6.54"/><circle cx="144.17" cy="121.99" r="6.07"/><circle cx="166.36" cy="121.99" r="5.19"/><circle cx="188.54" cy="121.99" r="3.99"/><circle cx="210.72" cy="121.99" r="2.59"/><circle cx="232.9" cy="121.99" r="1.13"/><circle cx="255.08" cy="121.99" r="2.24"/><circle cx="277.26" cy="121.99" r="3.39"/><circle cx="299.44" cy="121.99" r="4.2"/><circle cx="321.62" cy="121.99" r="4.6"/><circle cx="343.8" cy="121.99" r="4.54"/><circle cx="365.98" cy="121.99" r="4.03"/><circle cx="388.16" cy="121.99" r="3.12"/><circle cx="410.34" cy="121.99" r="1.9"/><circle cx="432.52" cy="121.99" r="1.51"/><circle cx="454.7" cy="121.99" r="2.96"/><circle cx="476.88" cy="121.99" r="4.32"/><circle cx="499.07" cy="121.99" r="5.45"/><circle cx="521.25" cy="121.99" r="6.23"/><circle cx="11.09" cy="144.17" r="1.59"/><circle cx="33.27" cy="144.17" r="2.97"/><circle cx="55.45" cy="144.17" r="4.15"/><circle cx="77.63" cy="144.17" r="4.99"/><circle cx="99.81" cy="144.17" r="5.43"/><circle cx="121.99" cy="144.17" r="5.41"/><circle cx="144.17" cy="144.17" r="4.94"/><circle cx="166.36" cy="144.17" r="4.06"/><circle cx="188.54" cy="144.17" r="2.86"/><circle cx="210.72" cy="144.17" r="1.46"/><circle cx="232.9" cy="144.17" r="2"/><circle cx="255.08" cy="144.17" r="3.37"/><circle cx="277.26" cy="144.17" r="4.52"/><circle cx="299.44" cy="144.17" r="5.34"/><circle cx="321.62" cy="144.17" r="5.73"/><circle cx="343.8" cy="144.17" r="5.67"/><circle cx="365.98" cy="144.17" r="5.16"/><circle cx="388.16" cy="144.17" r="4.25"/><circle cx="410.34" cy="144.17" r="3.03"/><circle cx="432.52" cy="144.17" r="1.62"/><circle cx="454.7" cy="144.17" r="1.83"/><circle cx="476.88" cy="144.17" r="3.19"/><circle cx="499.07" cy="144.17" r="4.32"/><circle cx="521.25" cy="144.17" r="5.1"/><circle cx="11.09" cy="166.36" r="1.54"/><circle cx="33.27" cy="166.36" r="1.85"/><circle cx="55.45" cy="166.36" r="3.02"/><circle cx="77.63" cy="166.36" r="3.87"/><circle cx="99.81" cy="166.36" r="4.31"/><circle cx="121.99" cy="166.36" r="4.29"/><circle cx="144.17" cy="166.36" r="3.81"/><circle cx="166.36" cy="166.36" r="2.93"/><circle cx="188.54" cy="166.36" r="1.74"/><circle cx="210.72" cy="166.36" r="1.66"/><circle cx="232.9" cy="166.36" r="3.12"/><circle cx="255.08" cy="166.36" r="4.49"/><circle cx="277.26" cy="166.36" r="5.64"/><circle cx="299.44" cy="166.36" r="6.46"/><circle cx="321.62" cy="166.36" r="6.86"/><circle cx="343.8" cy="166.36" r="6.8"/><circle cx="365.98" cy="166.36" r="6.29"/><circle cx="388.16" cy="166.36" r="5.38"/><circle cx="410.34" cy="166.36" r="4.16"/><circle cx="432.52" cy="166.36" r="2.75"/><circle cx="454.7" cy="166.36" r="1.29"/><circle cx="476.88" cy="166.36" r="2.07"/><circle cx="499.07" cy="166.36" r="3.19"/><circle cx="521.25" cy="166.36" r="3.98"/><circle cx="11.09" cy="188.54" r="2.58"/><circle cx="33.27" cy="188.54" r="1.2"/><circle cx="55.45" cy="188.54" r="1.98"/><circle cx="77.63" cy="188.54" r="2.82"/><circle cx="99.81" cy="188.54" r="3.26"/><circle cx="121.99" cy="188.54" r="3.24"/><circle cx="144.17" cy="188.54" r="2.77"/><circle cx="166.36" cy="188.54" r="1.89"/><circle cx="188.54" cy="188.54" r="1.31"/><circle cx="210.72" cy="188.54" r="2.71"/><circle cx="232.9" cy="188.54" r="4.16"/><circle cx="255.08" cy="188.54" r="5.54"/><circle cx="277.26" cy="188.54" r="6.69"/><circle cx="299.44" cy="188.54" r="7.5"/><circle cx="321.62" cy="188.54" r="7.9"/><circle cx="343.8" cy="188.54" r="7.84"/><circle cx="365.98" cy="188.54" r="7.33"/><circle cx="388.16" cy="188.54" r="6.42"/><circle cx="410.34" cy="188.54" r="5.2"/><circle cx="432.52" cy="188.54" r="3.79"/><circle cx="454.7" cy="188.54" r="2.34"/><circle cx="476.88" cy="188.54" r="1.02"/><circle cx="499.07" cy="188.54" r="2.15"/><circle cx="521.25" cy="188.54" r="2.93"/><circle cx="11.09" cy="210.72" r="3.49"/><circle cx="33.27" cy="210.72" r="2.1"/><circle cx="55.45" cy="210.72" r="1.07"/><circle cx="77.63" cy="210.72" r="1.92"/><circle cx="99.81" cy="210.72" r="2.35"/><circle cx="121.99" cy="210.72" r="2.33"/><circle cx="144.17" cy="210.72" r="1.86"/><circle cx="166.36" cy="210.72" r="1.02"/><circle cx="188.54" cy="210.72" r="2.22"/><circle cx="210.72" cy="210.72" r="3.61"/><circle cx="232.9" cy="210.72" r="5.07"/><circle cx="255.08" cy="210.72" r="6.44"/><circle cx="277.26" cy="210.72" r="7.59"/><circle cx="299.44" cy="210.72" r="8.41"/><circle cx="321.62" cy="210.72" r="8.81"/><circle cx="343.8" cy="210.72" r="8.75"/><circle cx="365.98" cy="210.72" r="8.24"/><circle cx="388.16" cy="210.72" r="7.33"/><circle cx="410.34" cy="210.72" r="6.11"/><circle cx="432.52" cy="210.72" r="4.7"/><circle cx="454.7" cy="210.72" r="3.24"/><circle cx="476.88" cy="210.72" r="1.88"/><circle cx="499.07" cy="210.72" r="1.24"/><circle cx="521.25" cy="210.72" r="2.02"/><circle cx="11.09" cy="232.9" r="4.2"/><circle cx="33.27" cy="232.9" r="2.82"/><circle cx="55.45" cy="232.9" r="1.64"/><circle cx="77.63" cy="232.9" r="1.21"/><circle cx="99.81" cy="232.9" r="1.64"/><circle cx="121.99" cy="232.9" r="1.62"/><circle cx="144.17" cy="232.9" r="1.15"/><circle cx="166.36" cy="232.9" r="1.73"/><circle cx="188.54" cy="232.9" r="2.93"/><circle cx="210.72" cy="232.9" r="4.32"/><circle cx="232.9" cy="232.9" r="5.78"/><circle cx="255.08" cy="232.9" r="7.16"/><circle cx="277.26" cy="232.9" r="8.31"/><circle cx="299.44" cy="232.9" r="9.12"/><circle cx="321.62" cy="232.9" r="9.52"/><circle cx="343.8" cy="232.9" r="9.46"/><circle cx="365.98" cy="232.9" r="8.95"/><circle cx="388.16" cy="232.9" r="8.04"/><circle cx="410.34" cy="232.9" r="6.82"/><circle cx="432.52" cy="232.9" r="5.41"/><circle cx="454.7" cy="232.9" r="3.96"/><circle cx="476.88" cy="232.9" r="2.6"/><circle cx="499.07" cy="232.9" r="1.47"/><circle cx="521.25" cy="232.9" r="1.31"/><circle cx="11.09" cy="255.08" r="4.68"/><circle cx="33.27" cy="255.08" r="3.29"/><circle cx="55.45" cy="255.08" r="2.11"/><circle cx="77.63" cy="255.08" r="1.27"/><circle cx="99.81" cy="255.08" r="1.17"/><circle cx="121.99" cy="255.08" r="1.15"/><circle cx="144.17" cy="255.08" r="1.32"/><circle cx="166.36" cy="255.08" r="2.2"/><circle cx="188.54" cy="255.08" r="3.4"/><circle cx="210.72" cy="255.08" r="4.8"/><circle cx="232.9" cy="255.08" r="6.26"/><circle cx="255.08" cy="255.08" r="7.63"/><circle cx="277.26" cy="255.08" r="8.78"/><circle cx="299.44" cy="255.08" r="9.6"/><circle cx="321.62" cy="255.08" r="9.99"/><circle cx="343.8" cy="255.08" r="9.93"/><circle cx="365.98" cy="255.08" r="9.42"/><circle cx="388.16" cy="255.08" r="8.51"/><circle cx="410.34" cy="255.08" r="7.29"/><circle cx="432.52" cy="255.08" r="5.89"/><circle cx="454.7" cy="255.08" r="4.43"/><circle cx="476.88" cy="255.08" r="3.07"/><circle cx="499.07" cy="255.08" r="1.94"/><circle cx="521.25" cy="255.08" r="1.16"/><circle cx="11.09" cy="277.26" r="4.88"/><circle cx="33.27" cy="277.26" r="3.5"/><circle cx="55.45" cy="277.26" r="2.32"/><circle cx="77.63" cy="277.26" r="1.48"/><circle cx="99.81" cy="277.26" r="1.04"/><circle cx="121.99" cy="277.26" r="1.06"/><circle cx="144.17" cy="277.26" r="1.53"/><circle cx="166.36" cy="277.26" r="2.41"/><circle cx="188.54" cy="277.26" r="3.61"/><circle cx="210.72" cy="277.26" r="5.01"/><circle cx="232.9" cy="277.26" r="6.46"/><circle cx="255.08" cy="277.26" r="7.84"/><circle cx="277.26" cy="277.26" r="8.99"/><circle cx="299.44" cy="277.26" r="9.8"/><circle cx="321.62" cy="277.26" r="10.2"/><circle cx="343.8" cy="277.26" r="10.14"/><circle cx="365.98" cy="277.26" r="9.63"/><circle cx="388.16" cy="277.26" r="8.72"/><circle cx="410.34" cy="277.26" r="7.5"/><circle cx="432.52" cy="277.26" r="6.09"/><circle cx="454.7" cy="277.26" r="4.64"/><circle cx="476.88" cy="277.26" r="3.28"/><circle cx="499.07" cy="277.26" r="2.15"/><circle cx="521.25" cy="277.26" r="1.37"/><circle cx="11.09" cy="299.44" r="4.81"/><circle cx="33.27" cy="299.44" r="3.43"/><circle cx="55.45" cy="299.44" r="2.25"/><circle cx="77.63" cy="299.44" r="1.4"/><circle cx="99.81" cy="299.44" r="1.03"/><circle cx="121.99" cy="299.44" r="1.01"/><circle cx="144.17" cy="299.44" r="1.46"/><circle cx="166.36" cy="299.44" r="2.34"/><circle cx="188.54" cy="299.44" r="3.54"/><circle cx="210.72" cy="299.44" r="4.94"/><circle cx="232.9" cy="299.44" r="6.39"/><circle cx="255.08" cy="299.44" r="7.77"/><circle cx="277.26" cy="299.44" r="8.92"/><circle cx="299.44" cy="299.44" r="9.73"/><circle cx="321.62" cy="299.44" r="10.13"/><circle cx="343.8" cy="299.44" r="10.07"/><circle cx="365.98" cy="299.44" r="9.56"/><circle cx="388.16" cy="299.44" r="8.65"/><circle cx="410.34" cy="299.44" r="7.43"/><circle cx="432.52" cy="299.44" r="6.02"/><circle cx="454.7" cy="299.44" r="4.57"/><circle cx="476.88" cy="299.44" r="3.21"/><circle cx="499.07" cy="299.44" r="2.08"/><circle cx="521.25" cy="299.44" r="1.3"/><circle cx="11.09" cy="321.62" r="4.47"/><circle cx="33.27" cy="321.62" r="3.08"/><circle cx="55.45" cy="321.62" r="1.91"/><circle cx="77.63" cy="321.62" r="1.06"/><circle cx="99.81" cy="321.62" r="1.38"/><circle cx="121.99" cy="321.62" r="1.36"/><circle cx="144.17" cy="321.62" r="1.12"/><circle cx="166.36" cy="321.62" r="2"/><circle cx="188.54" cy="321.62" r="3.19"/><circle cx="210.72" cy="321.62" r="4.59"/><circle cx="232.9" cy="321.62" r="6.05"/><circle cx="255.08" cy="321.62" r="7.42"/><circle cx="277.26" cy="321.62" r="8.57"/><circle cx="299.44" cy="321.62" r="9.39"/><circle cx="321.62" cy="321.62" r="9.79"/><circle cx="343.8" cy="321.62" r="9.73"/><circle cx="365.98" cy="321.62" r="9.22"/><circle cx="388.16" cy="321.62" r="8.31"/><circle cx="410.34" cy="321.62" r="7.09"/><circle cx="432.52" cy="321.62" r="5.68"/><circle cx="454.7" cy="321.62" r="4.22"/><circle cx="476.88" cy="321.62" r="2.86"/><circle cx="499.07" cy="321.62" r="1.74"/><circle cx="521.25" cy="321.62" r="1.05"/><circle cx="11.09" cy="343.8" r="3.87"/><circle cx="33.27" cy="343.8" r="2.48"/><circle cx="55.45" cy="343.8" r="1.31"/><circle cx="77.63" cy="343.8" r="1.54"/><circle cx="99.81" cy="343.8" r="1.97"/><circle cx="121.99" cy="343.8" r="1.96"/><circle cx="144.17" cy="343.8" r="1.48"/><circle cx="166.36" cy="343.8" r="1.4"/><circle cx="188.54" cy="343.8" r="2.6"/><circle cx="210.72" cy="343.8" r="3.99"/><circle cx="232.9" cy="343.8" r="5.45"/><circle cx="255.08" cy="343.8" r="6.82"/><circle cx="277.26" cy="343.8" r="7.97"/><circle cx="299.44" cy="343.8" r="8.79"/><circle cx="321.62" cy="343.8" r="9.19"/><circle cx="343.8" cy="343.8" r="9.13"/><circle cx="365.98" cy="343.8" r="8.62"/><circle cx="388.16" cy="343.8" r="7.71"/><circle cx="410.34" cy="343.8" r="6.49"/><circle cx="432.52" cy="343.8" r="5.08"/><circle cx="454.7" cy="343.8" r="3.62"/><circle cx="476.88" cy="343.8" r="2.26"/><circle cx="499.07" cy="343.8" r="1.14"/><circle cx="521.25" cy="343.8" r="1.64"/><circle cx="11.09" cy="365.98" r="3.05"/><circle cx="33.27" cy="365.98" r="1.67"/><circle cx="55.45" cy="365.98" r="1.51"/><circle cx="77.63" cy="365.98" r="2.36"/><circle cx="99.81" cy="365.98" r="2.79"/><circle cx="121.99" cy="365.98" r="2.77"/><circle cx="144.17" cy="365.98" r="2.3"/><circle cx="166.36" cy="365.98" r="1.42"/><circle cx="188.54" cy="365.98" r="1.78"/><circle cx="210.72" cy="365.98" r="3.18"/><circle cx="232.9" cy="365.98" r="4.63"/><circle cx="255.08" cy="365.98" r="6.01"/><circle cx="277.26" cy="365.98" r="7.16"/><circle cx="299.44" cy="365.98" r="7.97"/><circle cx="321.62" cy="365.98" r="8.37"/><circle cx="343.8" cy="365.98" r="8.31"/><circle cx="365.98" cy="365.98" r="7.8"/><circle cx="388.16" cy="365.98" r="6.89"/><circle cx="410.34" cy="365.98" r="5.67"/><circle cx="432.52" cy="365.98" r="4.26"/><circle cx="454.7" cy="365.98" r="2.81"/><circle cx="476.88" cy="365.98" r="1.45"/><circle cx="499.07" cy="365.98" r="1.68"/><circle cx="521.25" cy="365.98" r="2.46"/><circle cx="11.09" cy="388.16" r="2.07"/><circle cx="33.27" cy="388.16" r="1.32"/><circle cx="55.45" cy="388.16" r="2.49"/><circle cx="77.63" cy="388.16" r="3.34"/><circle cx="99.81" cy="388.16" r="3.78"/><circle cx="121.99" cy="388.16" r="3.76"/><circle cx="144.17" cy="388.16" r="3.28"/><circle cx="166.36" cy="388.16" r="2.4"/><circle cx="188.54" cy="388.16" r="1.21"/><circle cx="210.72" cy="388.16" r="2.19"/><circle cx="232.9" cy="388.16" r="3.65"/><circle cx="255.08" cy="388.16" r="5.02"/><circle cx="277.26" cy="388.16" r="6.17"/><circle cx="299.44" cy="388.16" r="6.99"/><circle cx="321.62" cy="388.16" r="7.39"/><circle cx="343.8" cy="388.16" r="7.33"/><circle cx="365.98" cy="388.16" r="6.82"/><circle cx="388.16" cy="388.16" r="5.91"/><circle cx="410.34" cy="388.16" r="4.69"/><circle cx="432.52" cy="388.16" r="3.28"/><circle cx="454.7" cy="388.16" r="1.82"/><circle cx="476.88" cy="388.16" r="1.54"/><circle cx="499.07" cy="388.16" r="2.66"/><circle cx="521.25" cy="388.16" r="3.45"/><circle cx="11.09" cy="410.34" r="1.02"/><circle cx="33.27" cy="410.34" r="2.41"/><circle cx="55.45" cy="410.34" r="3.59"/><circle cx="77.63" cy="410.34" r="4.43"/><circle cx="99.81" cy="410.34" r="4.87"/><circle cx="121.99" cy="410.34" r="4.85"/><circle cx="144.17" cy="410.34" r="4.38"/><circle cx="166.36" cy="410.34" r="3.5"/><circle cx="188.54" cy="410.34" r="2.3"/><circle cx="210.72" cy="410.34" r="1.1"/><circle cx="232.9" cy="410.34" r="2.56"/><circle cx="255.08" cy="410.34" r="3.93"/><circle cx="277.26" cy="410.34" r="5.08"/><circle cx="299.44" cy="410.34" r="5.9"/><circle cx="321.62" cy="410.34" r="6.29"/><circle cx="343.8" cy="410.34" r="6.23"/><circle cx="365.98" cy="410.34" r="5.72"/><circle cx="388.16" cy="410.34" r="4.81"/><circle cx="410.34" cy="410.34" r="3.59"/><circle cx="432.52" cy="410.34" r="2.19"/><circle cx="454.7" cy="410.34" r="1.27"/><circle cx="476.88" cy="410.34" r="2.63"/><circle cx="499.07" cy="410.34" r="3.76"/><circle cx="521.25" cy="410.34" r="4.54"/><circle cx="11.09" cy="432.52" r="2.16"/><circle cx="33.27" cy="432.52" r="3.55"/><circle cx="55.45" cy="432.52" r="4.72"/><circle cx="77.63" cy="432.52" r="5.57"/><circle cx="99.81" cy="432.52" r="6"/><circle cx="121.99" cy="432.52" r="5.98"/><circle cx="144.17" cy="432.52" r="5.51"/><circle cx="166.36" cy="432.52" r="4.63"/><circle cx="188.54" cy="432.52" r="3.43"/><circle cx="210.72" cy="432.52" r="2.04"/><circle cx="232.9" cy="432.52" r="1.42"/><circle cx="255.08" cy="432.52" r="2.79"/><circle cx="277.26" cy="432.52" r="3.95"/><circle cx="299.44" cy="432.52" r="4.76"/><circle cx="321.62" cy="432.52" r="5.16"/><circle cx="343.8" cy="432.52" r="5.1"/><circle cx="365.98" cy="432.52" r="4.59"/><circle cx="388.16" cy="432.52" r="3.68"/><circle cx="410.34" cy="432.52" r="2.46"/><circle cx="432.52" cy="432.52" r="1.05"/><circle cx="454.7" cy="432.52" r="2.41"/><circle cx="476.88" cy="432.52" r="3.76"/><circle cx="499.07" cy="432.52" r="4.89"/><circle cx="521.25" cy="432.52" r="5.67"/><circle cx="11.09" cy="454.7" r="3.27"/><circle cx="33.27" cy="454.7" r="4.66"/><circle cx="55.45" cy="454.7" r="5.83"/><circle cx="77.63" cy="454.7" r="6.68"/><circle cx="99.81" cy="454.7" r="7.11"/><circle cx="121.99" cy="454.7" r="7.09"/><circle cx="144.17" cy="454.7" r="6.62"/><circle cx="166.36" cy="454.7" r="5.74"/><circle cx="188.54" cy="454.7" r="4.54"/><circle cx="210.72" cy="454.7" r="3.15"/><circle cx="232.9" cy="454.7" r="1.69"/><circle cx="255.08" cy="454.7" r="1.68"/><circle cx="277.26" cy="454.7" r="2.84"/><circle cx="299.44" cy="454.7" r="3.65"/><circle cx="321.62" cy="454.7" r="4.05"/><circle cx="343.8" cy="454.7" r="3.99"/><circle cx="365.98" cy="454.7" r="3.48"/><circle cx="388.16" cy="454.7" r="2.57"/><circle cx="410.34" cy="454.7" r="1.35"/><circle cx="432.52" cy="454.7" r="2.06"/><circle cx="454.7" cy="454.7" r="3.52"/><circle cx="476.88" cy="454.7" r="4.87"/><circle cx="499.07" cy="454.7" r="6"/><circle cx="521.25" cy="454.7" r="6.78"/><circle cx="11.09" cy="476.88" r="4.29"/><circle cx="33.27" cy="476.88" r="5.67"/><circle cx="55.45" cy="476.88" r="6.85"/><circle cx="77.63" cy="476.88" r="7.69"/><circle cx="99.81" cy="476.88" r="8.13"/><circle cx="121.99" cy="476.88" r="8.11"/><circle cx="144.17" cy="476.88" r="7.64"/><circle cx="166.36" cy="476.88" r="6.76"/><circle cx="188.54" cy="476.88" r="5.56"/><circle cx="210.72" cy="476.88" r="4.16"/><circle cx="232.9" cy="476.88" r="2.7"/><circle cx="255.08" cy="476.88" r="1.33"/><circle cx="277.26" cy="476.88" r="1.82"/><circle cx="299.44" cy="476.88" r="2.63"/><circle cx="321.62" cy="476.88" r="3.03"/><circle cx="343.8" cy="476.88" r="2.97"/><circle cx="365.98" cy="476.88" r="2.46"/><circle cx="388.16" cy="476.88" r="1.55"/><circle cx="410.34" cy="476.88" r="1.67"/><circle cx="432.52" cy="476.88" r="3.08"/><circle cx="454.7" cy="476.88" r="4.53"/><circle cx="476.88" cy="476.88" r="5.89"/><circle cx="499.07" cy="476.88" r="7.02"/><circle cx="521.25" cy="476.88" r="7.8"/><circle cx="11.09" cy="499.07" r="5.15"/><circle cx="33.27" cy="499.07" r="6.53"/><circle cx="55.45" cy="499.07" r="7.71"/><circle cx="77.63" cy="499.07" r="8.56"/><circle cx="99.81" cy="499.07" r="8.99"/><circle cx="121.99" cy="499.07" r="8.97"/><circle cx="144.17" cy="499.07" r="8.5"/><circle cx="166.36" cy="499.07" r="7.62"/><circle cx="188.54" cy="499.07" r="6.42"/><circle cx="210.72" cy="499.07" r="5.02"/><circle cx="232.9" cy="499.07" r="3.57"/><circle cx="255.08" cy="499.07" r="2.19"/><circle cx="277.26" cy="499.07" r="1.04"/><circle cx="299.44" cy="499.07" r="1.77"/><circle cx="321.62" cy="499.07" r="2.17"/><circle cx="343.8" cy="499.07" r="2.11"/><circle cx="365.98" cy="499.07" r="1.6"/><circle cx="388.16" cy="499.07" r="1.31"/><circle cx="410.34" cy="499.07" r="2.53"/><circle cx="432.52" cy="499.07" r="3.94"/><circle cx="454.7" cy="499.07" r="5.39"/><circle cx="476.88" cy="499.07" r="6.75"/><circle cx="499.07" cy="499.07" r="7.88"/><circle cx="521.25" cy="499.07" r="8.66"/><circle cx="11.09" cy="521.25" r="5.8"/><circle cx="33.27" cy="521.25" r="7.19"/><circle cx="55.45" cy="521.25" r="8.36"/><circle cx="77.63" cy="521.25" r="9.21"/><circle cx="99.81" cy="521.25" r="9.65"/><circle cx="121.99" cy="521.25" r="9.63"/><circle cx="144.17" cy="521.25" r="9.15"/><circle cx="166.36" cy="521.25" r="8.27"/><circle cx="188.54" cy="521.25" r="7.08"/><circle cx="210.72" cy="521.25" r="5.68"/><circle cx="232.9" cy="521.25" r="4.22"/><circle cx="255.08" cy="521.25" r="2.85"/><circle cx="277.26" cy="521.25" r="1.7"/><circle cx="299.44" cy="521.25" r="1.12"/><circle cx="321.62" cy="521.25" r="1.52"/><circle cx="343.8" cy="521.25" r="1.46"/><circle cx="365.98" cy="521.25" r="1.05"/><circle cx="388.16" cy="521.25" r="1.96"/><circle cx="410.34" cy="521.25" r="3.18"/><circle cx="432.52" cy="521.25" r="4.59"/><circle cx="454.7" cy="521.25" r="6.05"/><circle cx="476.88" cy="521.25" r="7.41"/><circle cx="499.07" cy="521.25" r="8.53"/><circle cx="521.25" cy="521.25" r="9.32"/><circle cx="11.09" cy="543.43" r="6.21"/><circle cx="33.27" cy="543.43" r="7.6"/><circle cx="55.45" cy="543.43" r="8.77"/><circle cx="77.63" cy="543.43" r="9.62"/><circle cx="99.81" cy="543.43" r="10.06"/><circle cx="121.99" cy="543.43" r="10.04"/><circle cx="144.17" cy="543.43" r="9.56"/><circle cx="166.36" cy="543.43" r="8.68"/><circle cx="188.54" cy="543.43" r="7.49"/><circle cx="210.72" cy="543.43" r="6.09"/><circle cx="232.9" cy="543.43" r="4.63"/><circle cx="255.08" cy="543.43" r="3.26"/><circle cx="277.26" cy="543.43" r="2.11"/><circle cx="299.44" cy="543.43" r="1.29"/><circle cx="321.62" cy="543.43" r="1.11"/><circle cx="343.8" cy="543.43" r="1.05"/><circle cx="365.98" cy="543.43" r="1.46"/><circle cx="388.16" cy="543.43" r="2.37"/><circle cx="410.34" cy="543.43" r="3.59"/><circle cx="432.52" cy="543.43" r="5"/><circle cx="454.7" cy="543.43" r="6.46"/><circle cx="476.88" cy="543.43" r="7.82"/><circle cx="499.07" cy="543.43" r="8.94"/><circle cx="521.25" cy="543.43" r="9.73"/><circle cx="11.09" cy="565.61" r="6.35"/><circle cx="33.27" cy="565.61" r="7.74"/><circle cx="55.45" cy="565.61" r="8.91"/><circle cx="77.63" cy="565.61" r="9.76"/><circle cx="99.81" cy="565.61" r="10.19"/><circle cx="121.99" cy="565.61" r="10.17"/><circle cx="144.17" cy="565.61" r="9.7"/><circle cx="166.36" cy="565.61" r="8.82"/><circle cx="188.54" cy="565.61" r="7.62"/><circle cx="210.72" cy="565.61" r="6.23"/><circle cx="232.9" cy="565.61" r="4.77"/><circle cx="255.08" cy="565.61" r="3.4"/><circle cx="277.26" cy="565.61" r="2.24"/><circle cx="299.44" cy="565.61" r="1.43"/><circle cx="321.62" cy="565.61" r="1.03"/><circle cx="343.8" cy="565.61" r="1.09"/><circle cx="365.98" cy="565.61" r="1.6"/><circle cx="388.16" cy="565.61" r="2.51"/><circle cx="410.34" cy="565.61" r="3.73"/><circle cx="432.52" cy="565.61" r="5.14"/><circle cx="454.7" cy="565.61" r="6.6"/><circle cx="476.88" cy="565.61" r="7.95"/><circle cx="499.07" cy="565.61" r="9.08"/><circle cx="521.25" cy="565.61" r="9.86"/><circle cx="11.09" cy="587.79" r="6.21"/><circle cx="33.27" cy="587.79" r="7.59"/><circle cx="55.45" cy="587.79" r="8.77"/><circle cx="77.63" cy="587.79" r="9.62"/><circle cx="99.81" cy="587.79" r="10.05"/><circle cx="121.99" cy="587.79" r="10.03"/><circle cx="144.17" cy="587.79" r="9.56"/><circle cx="166.36" cy="587.79" r="8.68"/><circle cx="188.54" cy="587.79" r="7.48"/><circle cx="210.72" cy="587.79" r="6.09"/><circle cx="232.9" cy="587.79" r="4.63"/><circle cx="255.08" cy="587.79" r="3.25"/><circle cx="277.26" cy="587.79" r="2.1"/><circle cx="299.44" cy="587.79" r="1.29"/><circle cx="321.62" cy="587.79" r="1.11"/><circle cx="343.8" cy="587.79" r="1.05"/><circle cx="365.98" cy="587.79" r="1.46"/><circle cx="388.16" cy="587.79" r="2.37"/><circle cx="410.34" cy="587.79" r="3.59"/><circle cx="432.52" cy="587.79" r="5"/><circle cx="454.7" cy="587.79" r="6.45"/><circle cx="476.88" cy="587.79" r="7.81"/><circle cx="499.07" cy="587.79" r="8.94"/><circle cx="521.25" cy="587.79" r="9.72"/><circle cx="11.09" cy="609.97" r="5.8"/><circle cx="33.27" cy="609.97" r="7.18"/><circle cx="55.45" cy="609.97" r="8.36"/><circle cx="77.63" cy="609.97" r="9.2"/><circle cx="99.81" cy="609.97" r="9.64"/><circle cx="121.99" cy="609.97" r="9.62"/><circle cx="144.17" cy="609.97" r="9.15"/><circle cx="166.36" cy="609.97" r="8.27"/><circle cx="188.54" cy="609.97" r="7.07"/><circle cx="210.72" cy="609.97" r="5.67"/><circle cx="232.9" cy="609.97" r="4.22"/><circle cx="255.08" cy="609.97" r="2.84"/><circle cx="277.26" cy="609.97" r="1.69"/><circle cx="299.44" cy="609.97" r="1.12"/><circle cx="321.62" cy="609.97" r="1.52"/><circle cx="343.8" cy="609.97" r="1.46"/><circle cx="365.98" cy="609.97" r="1.05"/><circle cx="388.16" cy="609.97" r="1.96"/><circle cx="410.34" cy="609.97" r="3.18"/><circle cx="432.52" cy="609.97" r="4.59"/><circle cx="454.7" cy="609.97" r="6.04"/><circle cx="476.88" cy="609.97" r="7.4"/><circle cx="499.07" cy="609.97" r="8.53"/><circle cx="521.25" cy="609.97" r="9.31"/><circle cx="11.09" cy="632.15" r="5.14"/><circle cx="33.27" cy="632.15" r="6.52"/><circle cx="55.45" cy="632.15" r="7.7"/><circle cx="77.63" cy="632.15" r="8.55"/><circle cx="99.81" cy="632.15" r="8.98"/><circle cx="121.99" cy="632.15" r="8.96"/><circle cx="144.17" cy="632.15" r="8.49"/><circle cx="166.36" cy="632.15" r="7.61"/><circle cx="188.54" cy="632.15" r="6.41"/><circle cx="210.72" cy="632.15" r="5.02"/><circle cx="232.9" cy="632.15" r="3.56"/><circle cx="255.08" cy="632.15" r="2.19"/><circle cx="277.26" cy="632.15" r="1.03"/><circle cx="299.44" cy="632.15" r="1.78"/><circle cx="321.62" cy="632.15" r="2.18"/><circle cx="343.8" cy="632.15" r="2.12"/><circle cx="365.98" cy="632.15" r="1.61"/><circle cx="388.16" cy="632.15" r="1.3"/><circle cx="410.34" cy="632.15" r="2.52"/><circle cx="432.52" cy="632.15" r="3.93"/><circle cx="454.7" cy="632.15" r="5.39"/><circle cx="476.88" cy="632.15" r="6.74"/><circle cx="499.07" cy="632.15" r="7.87"/><circle cx="521.25" cy="632.15" r="8.65"/><circle cx="11.09" cy="654.33" r="4.28"/><circle cx="33.27" cy="654.33" r="5.66"/><circle cx="55.45" cy="654.33" r="6.84"/><circle cx="77.63" cy="654.33" r="7.68"/><circle cx="99.81" cy="654.33" r="8.12"/><circle cx="121.99" cy="654.33" r="8.1"/><circle cx="144.17" cy="654.33" r="7.63"/><circle cx="166.36" cy="654.33" r="6.75"/><circle cx="188.54" cy="654.33" r="5.55"/><circle cx="210.72" cy="654.33" r="4.15"/><circle cx="232.9" cy="654.33" r="2.69"/><circle cx="255.08" cy="654.33" r="1.32"/><circle cx="277.26" cy="654.33" r="1.83"/><circle cx="299.44" cy="654.33" r="2.64"/><circle cx="321.62" cy="654.33" r="3.04"/><circle cx="343.8" cy="654.33" r="2.98"/><circle cx="365.98" cy="654.33" r="2.47"/><circle cx="388.16" cy="654.33" r="1.56"/><circle cx="410.34" cy="654.33" r="1.66"/><circle cx="432.52" cy="654.33" r="3.07"/><circle cx="454.7" cy="654.33" r="4.52"/><circle cx="476.88" cy="654.33" r="5.88"/><circle cx="499.07" cy="654.33" r="7.01"/><circle cx="521.25" cy="654.33" r="7.79"/><circle cx="11.09" cy="676.51" r="3.26"/><circle cx="33.27" cy="676.51" r="4.64"/><circle cx="55.45" cy="676.51" r="5.82"/><circle cx="77.63" cy="676.51" r="6.67"/><circle cx="99.81" cy="676.51" r="7.1"/><circle cx="121.99" cy="676.51" r="7.08"/><circle cx="144.17" cy="676.51" r="6.61"/><circle cx="166.36" cy="676.51" r="5.73"/><circle cx="188.54" cy="676.51" r="4.53"/><circle cx="210.72" cy="676.51" r="3.13"/><circle cx="232.9" cy="676.51" r="1.68"/><circle cx="255.08" cy="676.51" r="1.7"/><circle cx="277.26" cy="676.51" r="2.85"/><circle cx="299.44" cy="676.51" r="3.66"/><circle cx="321.62" cy="676.51" r="4.06"/><circle cx="343.8" cy="676.51" r="4"/><circle cx="365.98" cy="676.51" r="3.49"/><circle cx="388.16" cy="676.51" r="2.58"/><circle cx="410.34" cy="676.51" r="1.36"/><circle cx="432.52" cy="676.51" r="2.05"/><circle cx="454.7" cy="676.51" r="3.5"/><circle cx="476.88" cy="676.51" r="4.86"/><circle cx="499.07" cy="676.51" r="5.99"/><circle cx="521.25" cy="676.51" r="6.77"/><circle cx="11.09" cy="698.69" r="2.15"/><circle cx="33.27" cy="698.69" r="3.53"/><circle cx="55.45" cy="698.69" r="4.71"/><circle cx="77.63" cy="698.69" r="5.56"/><circle cx="99.81" cy="698.69" r="5.99"/><circle cx="121.99" cy="698.69" r="5.97"/><circle cx="144.17" cy="698.69" r="5.5"/><circle cx="166.36" cy="698.69" r="4.62"/><circle cx="188.54" cy="698.69" r="3.42"/><circle cx="210.72" cy="698.69" r="2.02"/><circle cx="232.9" cy="698.69" r="1.43"/><circle cx="255.08" cy="698.69" r="2.81"/><circle cx="277.26" cy="698.69" r="3.96"/><circle cx="299.44" cy="698.69" r="4.77"/><circle cx="321.62" cy="698.69" r="5.17"/><circle cx="343.8" cy="698.69" r="5.11"/><circle cx="365.98" cy="698.69" r="4.6"/><circle cx="388.16" cy="698.69" r="3.69"/><circle cx="410.34" cy="698.69" r="2.47"/><circle cx="432.52" cy="698.69" r="1.06"/><circle cx="454.7" cy="698.69" r="2.39"/><circle cx="476.88" cy="698.69" r="3.75"/><circle cx="499.07" cy="698.69" r="4.88"/><circle cx="521.25" cy="698.69" r="5.66"/><circle cx="11.09" cy="720.87" r="1.01"/><circle cx="33.27" cy="720.87" r="2.4"/><circle cx="55.45" cy="720.87" r="3.57"/><circle cx="77.63" cy="720.87" r="4.42"/><circle cx="99.81" cy="720.87" r="4.86"/><circle cx="121.99" cy="720.87" r="4.84"/><circle cx="144.17" cy="720.87" r="4.36"/><circle cx="166.36" cy="720.87" r="3.48"/><circle cx="188.54" cy="720.87" r="2.29"/><circle cx="210.72" cy="720.87" r="1.11"/><circle cx="232.9" cy="720.87" r="2.57"/><circle cx="255.08" cy="720.87" r="3.94"/><circle cx="277.26" cy="720.87" r="5.09"/><circle cx="299.44" cy="720.87" r="5.91"/><circle cx="321.62" cy="720.87" r="6.31"/><circle cx="343.8" cy="720.87" r="6.25"/><circle cx="365.98" cy="720.87" r="5.74"/><circle cx="388.16" cy="720.87" r="4.83"/><circle cx="410.34" cy="720.87" r="3.61"/><circle cx="432.52" cy="720.87" r="2.2"/><circle cx="454.7" cy="720.87" r="1.26"/><circle cx="476.88" cy="720.87" r="2.62"/><circle cx="499.07" cy="720.87" r="3.74"/><circle cx="521.25" cy="720.87" r="4.53"/><circle cx="11.09" cy="743.05" r="2.08"/><circle cx="33.27" cy="743.05" r="1.31"/><circle cx="55.45" cy="743.05" r="2.48"/><circle cx="77.63" cy="743.05" r="3.33"/><circle cx="99.81" cy="743.05" r="3.76"/><circle cx="121.99" cy="743.05" r="3.74"/><circle cx="144.17" cy="743.05" r="3.27"/><circle cx="166.36" cy="743.05" r="2.39"/><circle cx="188.54" cy="743.05" r="1.19"/><circle cx="210.72" cy="743.05" r="2.2"/><circle cx="232.9" cy="743.05" r="3.66"/><circle cx="255.08" cy="743.05" r="5.03"/><circle cx="277.26" cy="743.05" r="6.18"/><circle cx="299.44" cy="743.05" r="7"/><circle cx="321.62" cy="743.05" r="7.4"/><circle cx="343.8" cy="743.05" r="7.34"/><circle cx="365.98" cy="743.05" r="6.83"/><circle cx="388.16" cy="743.05" r="5.92"/><circle cx="410.34" cy="743.05" r="4.7"/><circle cx="432.52" cy="743.05" r="3.29"/><circle cx="454.7" cy="743.05" r="1.83"/><circle cx="476.88" cy="743.05" r="1.53"/><circle cx="499.07" cy="743.05" r="2.65"/><circle cx="521.25" cy="743.05" r="3.43"/><circle cx="11.09" cy="765.23" r="3.06"/><circle cx="33.27" cy="765.23" r="1.68"/><circle cx="55.45" cy="765.23" r="1.5"/><circle cx="77.63" cy="765.23" r="2.35"/><circle cx="99.81" cy="765.23" r="2.78"/><circle cx="121.99" cy="765.23" r="2.76"/><circle cx="144.17" cy="765.23" r="2.29"/><circle cx="166.36" cy="765.23" r="1.41"/><circle cx="188.54" cy="765.23" r="1.79"/><circle cx="210.72" cy="765.23" r="3.19"/><circle cx="232.9" cy="765.23" r="4.64"/><circle cx="255.08" cy="765.23" r="6.02"/><circle cx="277.26" cy="765.23" r="7.17"/><circle cx="299.44" cy="765.23" r="7.98"/><circle cx="321.62" cy="765.23" r="8.38"/><circle cx="343.8" cy="765.23" r="8.32"/><circle cx="365.98" cy="765.23" r="7.81"/><circle cx="388.16" cy="765.23" r="6.9"/><circle cx="410.34" cy="765.23" r="5.68"/><circle cx="432.52" cy="765.23" r="4.27"/><circle cx="454.7" cy="765.23" r="2.82"/><circle cx="476.88" cy="765.23" r="1.46"/><circle cx="499.07" cy="765.23" r="1.67"/><circle cx="521.25" cy="765.23" r="2.45"/><circle cx="11.09" cy="787.41" r="3.88"/><circle cx="33.27" cy="787.41" r="2.49"/><circle cx="55.45" cy="787.41" r="1.32"/><circle cx="77.63" cy="787.41" r="1.53"/><circle cx="99.81" cy="787.41" r="1.97"/><circle cx="121.99" cy="787.41" r="1.95"/><circle cx="144.17" cy="787.41" r="1.47"/><circle cx="166.36" cy="787.41" r="1.41"/><circle cx="188.54" cy="787.41" r="2.6"/><circle cx="210.72" cy="787.41" r="4"/><circle cx="232.9" cy="787.41" r="5.46"/><circle cx="255.08" cy="787.41" r="6.83"/><circle cx="277.26" cy="787.41" r="7.98"/><circle cx="299.44" cy="787.41" r="8.8"/><circle cx="321.62" cy="787.41" r="9.19"/><circle cx="343.8" cy="787.41" r="9.14"/><circle cx="365.98" cy="787.41" r="8.63"/><circle cx="388.16" cy="787.41" r="7.71"/><circle cx="410.34" cy="787.41" r="6.49"/><circle cx="432.52" cy="787.41" r="5.09"/><circle cx="454.7" cy="787.41" r="3.63"/><circle cx="476.88" cy="787.41" r="2.27"/><circle cx="499.07" cy="787.41" r="1.15"/><circle cx="521.25" cy="787.41" r="1.64"/><circle cx="11.09" cy="809.59" r="4.47"/><circle cx="33.27" cy="809.59" r="3.09"/><circle cx="55.45" cy="809.59" r="1.91"/><circle cx="77.63" cy="809.59" r="1.06"/><circle cx="99.81" cy="809.59" r="1.37"/><circle cx="121.99" cy="809.59" r="1.35"/><circle cx="144.17" cy="809.59" r="1.12"/><circle cx="166.36" cy="809.59" r="2"/><circle cx="188.54" cy="809.59" r="3.2"/><circle cx="210.72" cy="809.59" r="4.6"/><circle cx="232.9" cy="809.59" r="6.05"/><circle cx="255.08" cy="809.59" r="7.43"/><circle cx="277.26" cy="809.59" r="8.58"/><circle cx="299.44" cy="809.59" r="9.39"/><circle cx="321.62" cy="809.59" r="9.79"/><circle cx="343.8" cy="809.59" r="9.73"/><circle cx="365.98" cy="809.59" r="9.22"/><circle cx="388.16" cy="809.59" r="8.31"/><circle cx="410.34" cy="809.59" r="7.09"/><circle cx="432.52" cy="809.59" r="5.68"/><circle cx="454.7" cy="809.59" r="4.23"/><circle cx="476.88" cy="809.59" r="2.87"/><circle cx="499.07" cy="809.59" r="1.74"/><circle cx="521.25" cy="809.59" r="1.04"/><circle cx="11.09" cy="831.78" r="4.81"/><circle cx="33.27" cy="831.78" r="3.43"/><circle cx="55.45" cy="831.78" r="2.25"/><circle cx="77.63" cy="831.78" r="1.41"/><circle cx="99.81" cy="831.78" r="1.03"/><circle cx="121.99" cy="831.78" r="1.01"/><circle cx="144.17" cy="831.78" r="1.46"/><circle cx="166.36" cy="831.78" r="2.34"/><circle cx="188.54" cy="831.78" r="3.54"/><circle cx="210.72" cy="831.78" r="4.94"/><circle cx="232.9" cy="831.78" r="6.4"/><circle cx="255.08" cy="831.78" r="7.77"/><circle cx="277.26" cy="831.78" r="8.92"/><circle cx="299.44" cy="831.78" r="9.74"/><circle cx="321.62" cy="831.78" r="10.13"/><circle cx="343.8" cy="831.78" r="10.07"/><circle cx="365.98" cy="831.78" r="9.56"/><circle cx="388.16" cy="831.78" r="8.65"/><circle cx="410.34" cy="831.78" r="7.43"/><circle cx="432.52" cy="831.78" r="6.02"/><circle cx="454.7" cy="831.78" r="4.57"/><circle cx="476.88" cy="831.78" r="3.21"/><circle cx="499.07" cy="831.78" r="2.08"/><circle cx="521.25" cy="831.78" r="1.3"/><circle cx="11.09" cy="853.96" r="4.88"/><circle cx="33.27" cy="853.96" r="3.5"/><circle cx="55.45" cy="853.96" r="2.32"/><circle cx="77.63" cy="853.96" r="1.47"/><circle cx="99.81" cy="853.96" r="1.04"/><circle cx="121.99" cy="853.96" r="1.06"/><circle cx="144.17" cy="853.96" r="1.53"/><circle cx="166.36" cy="853.96" r="2.41"/><circle cx="188.54" cy="853.96" r="3.61"/><circle cx="210.72" cy="853.96" r="5.01"/><circle cx="232.9" cy="853.96" r="6.46"/><circle cx="255.08" cy="853.96" r="7.84"/><circle cx="277.26" cy="853.96" r="8.99"/><circle cx="299.44" cy="853.96" r="9.8"/><circle cx="321.62" cy="853.96" r="10.2"/><circle cx="343.8" cy="853.96" r="10.14"/><circle cx="365.98" cy="853.96" r="9.63"/><circle cx="388.16" cy="853.96" r="8.72"/><circle cx="410.34" cy="853.96" r="7.5"/><circle cx="432.52" cy="853.96" r="6.09"/><circle cx="454.7" cy="853.96" r="4.64"/><circle cx="476.88" cy="853.96" r="3.28"/><circle cx="499.07" cy="853.96" r="2.15"/><circle cx="521.25" cy="853.96" r="1.37"/><circle cx="11.09" cy="876.14" r="4.67"/><circle cx="33.27" cy="876.14" r="3.29"/><circle cx="55.45" cy="876.14" r="2.11"/><circle cx="77.63" cy="876.14" r="1.26"/><circle cx="99.81" cy="876.14" r="1.17"/><circle cx="121.99" cy="876.14" r="1.15"/><circle cx="144.17" cy="876.14" r="1.32"/><circle cx="166.36" cy="876.14" r="2.2"/><circle cx="188.54" cy="876.14" r="3.4"/><circle cx="210.72" cy="876.14" r="4.8"/><circle cx="232.9" cy="876.14" r="6.25"/><circle cx="255.08" cy="876.14" r="7.63"/><circle cx="277.26" cy="876.14" r="8.78"/><circle cx="299.44" cy="876.14" r="9.59"/><circle cx="321.62" cy="876.14" r="9.99"/><circle cx="343.8" cy="876.14" r="9.93"/><circle cx="365.98" cy="876.14" r="9.42"/><circle cx="388.16" cy="876.14" r="8.51"/><circle cx="410.34" cy="876.14" r="7.29"/><circle cx="432.52" cy="876.14" r="5.88"/><circle cx="454.7" cy="876.14" r="4.43"/><circle cx="476.88" cy="876.14" r="3.07"/><circle cx="499.07" cy="876.14" r="1.94"/><circle cx="521.25" cy="876.14" r="1.16"/><circle cx="11.09" cy="898.32" r="4.19"/><circle cx="33.27" cy="898.32" r="2.81"/><circle cx="55.45" cy="898.32" r="1.63"/><circle cx="77.63" cy="898.32" r="1.21"/><circle cx="99.81" cy="898.32" r="1.65"/><circle cx="121.99" cy="898.32" r="1.63"/><circle cx="144.17" cy="898.32" r="1.16"/><circle cx="166.36" cy="898.32" r="1.72"/><circle cx="188.54" cy="898.32" r="2.92"/><circle cx="210.72" cy="898.32" r="4.32"/><circle cx="232.9" cy="898.32" r="5.78"/><circle cx="255.08" cy="898.32" r="7.15"/><circle cx="277.26" cy="898.32" r="8.3"/><circle cx="299.44" cy="898.32" r="9.11"/><circle cx="321.62" cy="898.32" r="9.51"/><circle cx="343.8" cy="898.32" r="9.45"/><circle cx="365.98" cy="898.32" r="8.94"/><circle cx="388.16" cy="898.32" r="8.03"/><circle cx="410.34" cy="898.32" r="6.81"/><circle cx="432.52" cy="898.32" r="5.4"/><circle cx="454.7" cy="898.32" r="3.95"/><circle cx="476.88" cy="898.32" r="2.59"/><circle cx="499.07" cy="898.32" r="1.46"/><circle cx="521.25" cy="898.32" r="1.32"/><circle cx="11.09" cy="920.5" r="3.48"/><circle cx="33.27" cy="920.5" r="2.09"/><circle cx="55.45" cy="920.5" r="1.08"/><circle cx="77.63" cy="920.5" r="1.93"/><circle cx="99.81" cy="920.5" r="2.36"/><circle cx="121.99" cy="920.5" r="2.34"/><circle cx="144.17" cy="920.5" r="1.87"/><circle cx="166.36" cy="920.5" r="1.01"/><circle cx="188.54" cy="920.5" r="2.21"/><circle cx="210.72" cy="920.5" r="3.6"/><circle cx="232.9" cy="920.5" r="5.06"/><circle cx="255.08" cy="920.5" r="6.43"/><circle cx="277.26" cy="920.5" r="7.59"/><circle cx="299.44" cy="920.5" r="8.4"/><circle cx="321.62" cy="920.5" r="8.8"/><circle cx="343.8" cy="920.5" r="8.74"/><circle cx="365.98" cy="920.5" r="8.23"/><circle cx="388.16" cy="920.5" r="7.32"/><circle cx="410.34" cy="920.5" r="6.1"/><circle cx="432.52" cy="920.5" r="4.69"/><circle cx="454.7" cy="920.5" r="3.23"/><circle cx="476.88" cy="920.5" r="1.88"/><circle cx="499.07" cy="920.5" r="1.25"/><circle cx="521.25" cy="920.5" r="2.03"/><circle cx="11.09" cy="942.68" r="2.57"/><circle cx="33.27" cy="942.68" r="1.19"/><circle cx="55.45" cy="942.68" r="1.99"/><circle cx="77.63" cy="942.68" r="2.84"/><circle cx="99.81" cy="942.68" r="3.27"/><circle cx="121.99" cy="942.68" r="3.25"/><circle cx="144.17" cy="942.68" r="2.78"/><circle cx="166.36" cy="942.68" r="1.9"/><circle cx="188.54" cy="942.68" r="1.3"/><circle cx="210.72" cy="942.68" r="2.7"/><circle cx="232.9" cy="942.68" r="4.15"/><circle cx="255.08" cy="942.68" r="5.53"/><circle cx="277.26" cy="942.68" r="6.68"/><circle cx="299.44" cy="942.68" r="7.49"/><circle cx="321.62" cy="942.68" r="7.89"/><circle cx="343.8" cy="942.68" r="7.83"/><circle cx="365.98" cy="942.68" r="7.32"/><circle cx="388.16" cy="942.68" r="6.41"/><circle cx="410.34" cy="942.68" r="5.19"/><circle cx="432.52" cy="942.68" r="3.78"/><circle cx="454.7" cy="942.68" r="2.33"/><circle cx="476.88" cy="942.68" r="1.03"/><circle cx="499.07" cy="942.68" r="2.16"/><circle cx="521.25" cy="942.68" r="2.94"/></g><rect width="540" height="960" fill="url(#g)" opacity="0.4"/><rect width="540" height="960" filter="url(#grain)" opacity="0.22"/><rect x="0" y="534.63" width="540" height="11.1" fill="#ff2e63" opacity="0.7"/><rect x="0" y="627.39" width="540" height="5.74" fill="#08d9d6" opacity="0.6"/>
</svg>